<?xml version="1.0" standalone="no"?>
<!DOCTYPE svg PUBLIC "-//W3C//DTD SVG 20010904//EN"
 "http://www.w3.org/TR/2001/REC-SVG-20010904/DTD/svg10.dtd">
<svg version="1.0" xmlns="http://www.w3.org/2000/svg"
 width="512.000000pt" height="512.000000pt" viewBox="0 0 512.000000 512.000000"
 preserveAspectRatio="xMidYMid meet">

<g transform="translate(0.000000,512.000000) scale(0.100000,-0.100000)"
fill="#000000" stroke="none">
<path d="M2567 5029 c-96 -23 -194 -104 -282 -232 l-56 -83 -59 4 c-160 12
-300 -116 -300 -274 0 -104 42 -188 119 -240 l38 -25 -25 -102 c-13 -56 -25
-103 -27 -105 -2 -2 -38 15 -82 36 -486 245 -899 317 -1095 191 -287 -184
-122 -711 428 -1364 51 -60 109 -128 128 -150 34 -39 35 -43 36 -123 l0 -82
-108 -123 c-313 -356 -530 -701 -604 -965 -28 -100 -30 -257 -4 -317 66 -152
178 -209 412 -210 l131 0 38 -34 c59 -52 110 -71 190 -71 144 0 263 100 282
235 l6 46 115 54 c63 30 118 55 122 55 4 0 22 -60 40 -132 160 -657 427 -1004
706 -923 228 66 413 374 550 914 18 74 35 136 38 138 2 2 42 -15 87 -38 314
-158 617 -249 826 -249 149 0 243 32 315 107 110 114 116 294 17 549 l-39 101
27 59 c65 142 11 306 -124 374 -33 17 -72 26 -125 30 l-77 5 -37 50 c-48 63
-163 202 -231 279 l-53 59 0 86 1 86 75 85 c302 338 528 684 616 943 25 73 32
114 36 199 6 146 -11 202 -88 280 -48 48 -68 60 -131 80 -211 66 -546 -5 -962
-204 -70 -34 -129 -59 -132 -56 -3 3 -21 65 -39 139 -166 656 -416 985 -699
918z m148 -148 c51 -23 143 -122 196 -211 52 -88 128 -268 168 -396 34 -111
91 -339 91 -365 0 -11 -38 -39 -103 -77 l-103 -60 -65 14 c-105 24 -347 29
-459 10 -116 -20 -215 -49 -299 -87 -35 -16 -67 -29 -71 -29 -10 0 23 183 61
341 l30 127 46 11 c98 25 165 80 204 165 39 85 18 229 -43 293 l-20 22 35 58
c48 78 127 159 179 183 54 24 102 25 153 1z m-487 -321 c44 -27 75 -96 66
-146 -4 -20 -20 -52 -36 -70 -118 -134 -321 20 -227 172 38 62 133 83 197 44z
m-1072 -441 c181 -25 424 -109 669 -231 66 -33 121 -61 122 -62 1 -1 -7 -55
-18 -121 l-20 -120 -47 -39 c-145 -121 -265 -270 -345 -431 -42 -84 -97 -238
-97 -271 0 -7 -2 -14 -5 -14 -19 0 -242 283 -350 445 -176 263 -266 475 -268
630 -1 50 4 89 12 105 55 102 160 135 347 109z m3231 -27 c139 -73 134 -259
-13 -552 -62 -125 -138 -247 -239 -384 -75 -103 -251 -319 -263 -324 -4 -1
-20 40 -36 90 -100 330 -329 603 -635 757 -74 38 -83 27 94 123 274 149 538
254 750 299 126 26 283 22 342 -9z m-1545 -436 c451 -86 807 -441 891 -888
l15 -78 -197 -192 c-263 -259 -474 -440 -789 -677 l-123 -93 -81 59 c-201 145
-563 447 -572 478 -9 32 -7 504 4 695 13 233 40 511 51 533 21 38 231 128 369
157 107 23 327 26 432 6z m-971 -408 c-17 -181 -31 -478 -31 -678 l0 -185
-155 156 -156 155 16 76 c30 148 83 276 164 400 47 73 160 203 168 194 3 -2 0
-55 -6 -118z m-12 -1229 c6 -92 14 -192 17 -221 l5 -53 -60 62 c-135 140 -231
328 -276 538 -8 39 -15 87 -15 108 l0 39 159 -153 158 -152 12 -168z m1876
344 c-71 -381 -332 -700 -687 -840 l-68 -26 -110 73 c-61 40 -107 76 -103 80
4 4 71 54 148 112 240 181 600 494 775 673 66 67 70 61 45 -72z m-2315 -87 c0
-33 55 -187 97 -271 80 -161 201 -311 345 -431 47 -39 47 -39 63 -134 8 -52
18 -105 20 -117 5 -21 -8 -29 -118 -84 l-124 -62 -44 48 c-77 84 -189 116
-301 85 -92 -26 -170 -121 -190 -231 -7 -35 -17 -67 -22 -71 -19 -13 -161 -8
-213 7 -64 19 -98 46 -125 98 -18 35 -20 53 -15 127 13 221 199 558 518 940
90 108 109 125 109 96z m2570 -132 c55 -67 100 -127 100 -132 0 -5 -9 -17 -21
-28 -35 -31 -61 -95 -66 -159 -16 -201 143 -337 353 -301 l40 7 27 -68 c63
-165 76 -288 37 -363 -92 -180 -478 -128 -1015 136 -82 40 -187 95 -233 122
l-83 48 53 25 c97 44 254 157 342 245 144 144 253 325 312 521 22 72 31 90 41
81 7 -6 58 -66 113 -134z m-1865 -195 c77 -64 233 -187 355 -280 l35 -27 -110
-71 c-77 -50 -115 -69 -130 -65 -11 3 -66 27 -123 54 -69 33 -105 57 -112 72
-10 24 -40 310 -40 381 0 37 1 39 18 25 9 -8 58 -48 107 -89z m2255 -44 c59
-57 63 -138 9 -200 -52 -59 -128 -68 -192 -23 -58 41 -75 131 -36 194 30 50
64 65 132 61 47 -3 62 -8 87 -32z m-1643 -415 l48 -35 -78 -3 c-43 -2 -110 -2
-150 0 l-72 3 75 52 c85 58 72 59 177 -17z m-625 -66 l31 -16 -29 -19 c-39
-25 -41 -24 -46 16 -5 39 0 42 44 19z m328 -99 c118 -20 351 -16 457 8 l61 14
104 -60 c57 -33 105 -62 107 -64 7 -5 -36 -190 -76 -328 -43 -150 -120 -338
-178 -438 -83 -142 -193 -237 -273 -237 -183 0 -373 319 -503 844 -21 88 -38
160 -36 161 38 28 215 124 223 121 6 -2 57 -12 114 -21z m-917 -162 c64 -32
88 -134 47 -201 -27 -44 -96 -75 -146 -66 -20 4 -51 20 -70 36 -63 56 -69 139
-12 203 47 54 111 64 181 28z"/>
<path d="M3715 4823 c-62 -55 -125 -92 -185 -109 -88 -25 -107 -34 -118 -60
-16 -34 -2 -63 52 -108 65 -53 97 -112 104 -192 4 -54 9 -68 30 -84 37 -30 57
-25 112 30 60 60 124 94 208 110 105 21 118 64 46 156 -55 71 -87 130 -109
207 -27 94 -73 110 -140 50z m60 -220 c16 -32 31 -61 33 -64 2 -4 -24 -20 -57
-37 l-59 -30 -37 62 c-20 33 -32 62 -28 63 4 2 31 16 58 33 28 16 52 29 55 29
3 1 19 -25 35 -56z"/>
<path d="M595 2946 c-17 -12 -21 -30 -26 -123 -4 -95 -9 -118 -37 -177 -36
-76 -40 -116 -16 -141 14 -14 31 -15 114 -10 86 7 102 5 144 -14 26 -11 61
-32 78 -46 36 -31 71 -32 99 -4 19 19 21 29 15 85 -8 78 5 139 50 230 28 58
33 76 25 97 -14 36 -24 40 -137 48 -76 5 -117 14 -165 34 -82 35 -119 40 -144
21z m189 -180 c37 -8 70 -17 72 -19 2 -2 -3 -23 -11 -47 -8 -23 -15 -52 -15
-63 0 -17 -4 -19 -32 -13 -18 4 -51 9 -74 12 l-40 6 15 69 c8 38 15 69 15 69
1 0 32 -6 70 -14z"/>
<path d="M3497 867 c-10 -7 -24 -40 -32 -75 -18 -76 -52 -144 -101 -203 -56
-67 -61 -84 -37 -117 16 -22 32 -29 89 -38 110 -17 137 -30 197 -94 85 -92
130 -82 152 37 17 88 39 132 104 206 77 88 66 121 -51 157 -91 28 -152 58
-207 104 -45 38 -84 46 -114 23z m209 -238 c7 -2 -2 -28 -23 -65 l-33 -61 -44
22 c-24 12 -53 25 -65 28 -21 5 -21 6 10 70 l33 65 55 -27 c31 -16 61 -30 67
-32z"/>
</g>
</svg>
